<?xml version="1.0" encoding="utf-8"?>
<!-- Generator: Adobe Illustrator 24.2.1, SVG Export Plug-In . SVG Version: 6.00 Build 0)  -->
<svg version="1.1" id="Layer_1" xmlns="http://www.w3.org/2000/svg" xmlns:xlink="http://www.w3.org/1999/xlink" x="0px" y="0px"
	 viewBox="0 0 344 344" style="enable-background:new 0 0 344 344;" xml:space="preserve">
<style type="text/css">
	.st0{fill-rule:evenodd;clip-rule:evenodd;fill:#E4FF3F;}
	.st1{fill-rule:evenodd;clip-rule:evenodd;}
</style>
<path class="st0" d="M312,32V0H32v32H0v280h32v32l280,0v-32h32V32H312z M260.4,165.4h-23.5h-8.6h-32.1v-32h32.1v-23.2H164
	c-16.8,0.4-29.4,5.1-37,11.9c-9.8,8.7-17.6,23.9-18.9,34.9c-0.5,3.3-0.7,6-0.8,8.5h88.9v31.9h-83.9c3.9,10,10.9,19.5,19.4,26
	c12.1,9.1,26.7,13.7,44.2,13.7c24.3,0,42.1-9,53.2-26.9l27.4,15.6c-18.1,27.8-45.1,41.7-81.3,41.7c-29.3,0-53.2-9.2-71.5-27.5
	C85.2,221.7,76,198.5,76,170.4c0-27.9,10.4-53.3,29.9-70.2c16-13.8,36.6-21.3,58-22.2h64.3v32.1h32.1v55.3H260.4z"/>
<path class="st1" d="M163.9,78c-21.4,0.9-42,8.4-58,22.2C86.4,117.1,76,142.5,76,170.4c0,28.1,9.2,51.3,27.7,69.6
	c18.3,18.3,42.2,27.5,71.5,27.5c36.2,0,63.2-13.9,81.3-41.7l-27.4-15.6c-11.1,17.9-28.9,26.9-53.2,26.9c-17.5,0-32.1-4.6-44.2-13.7
	c-8.5-6.5-15.5-16-19.4-26h83.9v-31.9h-88.9c0.1-2.5,0.3-5.2,0.8-8.5c1.3-11,9.1-26.2,18.9-34.9c7.6-6.8,20.2-11.5,37-11.9h64.3
	v23.2h-32.1v32h32.1h8.6h23.4v-55.3h-32.1V78H163.9z"/>
</svg>
